<?xml version="1.0" encoding="UTF-8" standalone="no"?>
<svg
   xmlns:dc="http://purl.org/dc/elements/1.1/"
   xmlns:cc="http://creativecommons.org/ns#"
   xmlns:rdf="http://www.w3.org/1999/02/22-rdf-syntax-ns#"
   xmlns:svg="http://www.w3.org/2000/svg"
   xmlns="http://www.w3.org/2000/svg"
   xmlns:sodipodi="http://sodipodi.sourceforge.net/DTD/sodipodi-0.dtd"
   xmlns:inkscape="http://www.inkscape.org/namespaces/inkscape"
   width="724.21875"
   height="87.421875"
   viewBox="0 0 724.21875 87.421875"
   version="1.1"
   id="SVGRoot"
   sodipodi:docname="logo.svg"
   inkscape:version="1.0.2-2 (e86c870879, 2021-01-15)">
  <title
     id="title61">GatsbyMarkdown</title>
  <defs
     id="defs40" />
  <sodipodi:namedview
     id="base"
     pagecolor="#ffffff"
     bordercolor="#666666"
     borderopacity="1.0"
     inkscape:pageopacity="0.0"
     inkscape:pageshadow="2"
     inkscape:zoom="0.99"
     inkscape:cx="558.73902"
     inkscape:cy="127.0603"
     inkscape:document-units="px"
     inkscape:current-layer="layer1"
     inkscape:document-rotation="0"
     showgrid="false"
     inkscape:window-width="1350"
     inkscape:window-height="728"
     inkscape:window-x="0"
     inkscape:window-y="0"
     inkscape:window-maximized="0">
    <inkscape:grid
       type="xygrid"
       id="grid63"
       originx="-4.8973389"
       originy="-244.77231" />
  </sodipodi:namedview>
  <metadata
     id="metadata43">
    <rdf:RDF>
      <cc:Work
         rdf:about="">
        <dc:format>image/svg+xml</dc:format>
        <dc:type
           rdf:resource="http://purl.org/dc/dcmitype/StillImage" />
        <dc:title>GatsbyMarkdown</dc:title>
      </cc:Work>
    </rdf:RDF>
  </metadata>
  <g
     inkscape:label="Слой 1"
     inkscape:groupmode="layer"
     id="layer1"
     style="display:inline;opacity:1"
     transform="translate(-4.8973389,-244.77231)">
    <g
       aria-label="GatsbyMarkdown"
       id="text55"
       style="font-style:normal;font-variant:normal;font-weight:bold;font-stretch:normal;font-size:96px;line-height:1.25;font-family:Candara;-inkscape-font-specification:'Candara Bold';text-align:center;text-anchor:middle;display:inline">
      <path
         d="m 56.319214,309.83481 c -7.4375,1.90625 -13.65625,2.85937 -18.65625,2.85937 -10.75,0 -18.90625,-2.9375 -24.46875,-8.8125 -5.5312501,-5.90625 -8.2968751,-13.0625 -8.2968751,-21.46875 0,-8.84375 3.015625,-16.53125 9.0468751,-23.0625 6.0625,-6.53125 14.453125,-9.79687 25.171875,-9.79687 5.03125,0 9.46875,0.45312 13.3125,1.35937 l -1.546875,11.0625 c -4.90625,-1.28125 -9.3125,-1.92187 -13.21875,-1.92187 -6.59375,0 -11.515625,2.03125 -14.765625,6.09375 -3.25,4.03125 -4.875,8.96875 -4.875,14.8125 0,5.96875 1.8125,11.17187 5.4375,15.60937 3.65625,4.4375 8.6875,6.65625 15.09375,6.65625 1.78125,0 3.84375,-0.1875 6.1875,-0.5625 -0.46875,-3.46875 -0.703125,-6.875 -0.703125,-10.21875 0,-3.375 0.65625,4.21875 0,0 l 12.28125,-11.39062 c -0.25,4.8125 -0.375,9.65625 -0.375,14.53125 0,3.53125 0.125,8.28125 0.375,14.25 z"
         style="fill:#003380"
         id="path290"
         sodipodi:nodetypes="cscscsccscscscsccsc" />
      <path
         d="m 104.31921,311.38168 -11.062496,0.375 q -0.75,-1.96875 -0.75,-3.5625 h -0.609375 q -5.15625,4.40625 -13.921875,4.40625 -5.859375,0 -9.75,-3.23437 -3.84375,-3.28125 -3.84375,-8.67188 0,-7.125 6,-11.67187 6.046875,-4.54688 21.140625,-4.82813 0.09375,-0.84375 0.09375,-1.59375 0,-5.0625 -2.4375,-6.65625 -2.4375,-1.64062 -8.953125,-1.64062 -7.078125,0 -13.828125,1.875 l 1.03125,-8.625 q 6.375,-2.20313 18,-2.20313 8.484375,0 13.078125,3.5625 4.640626,3.5625 4.640626,12.46875 0,1.96875 -0.1875,7.17188 -0.14063,5.20312 -0.14063,6.9375 0,9.70312 1.5,15.89062 z m -12.515621,-9.75 q -0.28125,-6.32812 -0.28125,-10.92187 -15.984375,0 -15.984375,8.10937 0,5.57813 7.03125,5.57813 5.53125,0 9.234375,-2.76563 z"
         style="fill:#003380"
         id="path292" />
      <path
         d="m 141.11609,302.66293 -0.79688,8.34375 q -3.28125,1.40625 -8.25,1.40625 -7.59375,0 -11.4375,-4.125 -3.84375,-4.125 -3.84375,-15.89062 0,-7.07813 0.0937,-16.03125 -2.39062,0 -6.46875,0.28125 l 0.32813,-9.23438 q 3.60937,0.28125 6.70312,0.28125 0.0469,-2.48437 0.375,-13.07812 l 11.10938,-1.35938 q -0.70313,9.32813 -0.70313,14.4375 3.9375,0 11.76563,-0.375 l -0.375,9.32813 q -7.125,-0.28125 -11.57813,-0.28125 -0.0937,6.23437 -0.0937,13.07812 0,8.34375 1.6875,11.20313 1.6875,2.8125 5.95313,2.8125 2.57812,0 5.53125,-0.79688 z m -17.67188,-35.76562 z"
         style="fill:#003380"
         id="path294" />
      <path
         d="m 180.02234,298.63168 q 0,14.0625 -20.8125,14.0625 -7.59375,0 -13.26563,-1.64062 l 1.59375,-9.23438 q 5.85938,2.10938 11.67188,2.10938 5.625,0 7.78125,-0.9375 2.20312,-0.9375 2.20312,-3.14063 0,-3.42187 -7.875,-6.51562 -6.89062,-2.71875 -10.03125,-5.34375 -4.3125,-3.65625 -4.3125,-8.95313 0,-6.23437 4.64063,-10.03125 4.64062,-3.79687 13.5,-3.79687 8.29687,0 13.03125,1.45312 l -1.59375,9.28125 q -5.29688,-2.0625 -11.4375,-2.0625 -7.5,0 -7.5,3.84375 0,1.96875 1.59375,3.1875 1.59375,1.17188 6.51562,3 6.79688,2.48438 9.89063,5.10938 4.40625,3.75 4.40625,9.60937 z"
         style="fill:#003380"
         id="path296" />
      <path
         d="m 233.22546,287.24106 q 0,10.17187 -5.8125,17.85937 -5.8125,7.6875 -15.98437,7.6875 -7.5,0 -10.59375,-3.1875 h -0.60938 l -0.9375,1.82813 h -11.01562 q 0.60937,-16.45313 0.60937,-34.82813 0,-17.29687 -1.54687,-31.07812 l 13.45312,-0.75 q -0.46875,10.92187 -0.46875,24.70312 h 0.5625 q 4.73438,-4.17187 12.79688,-4.17187 9,0 14.25,6.51562 5.29687,6.46875 5.29687,15.42188 z m -12.46875,1.21875 q 0,-5.85938 -3,-10.125 -2.95312,-4.3125 -8.15625,-4.3125 -6.46875,0 -9.46875,3.79687 0,16.03125 0.70313,24.14063 2.95312,2.29687 7.64062,2.29687 6.23438,0 9.23438,-4.59375 3.04687,-4.64062 3.04687,-11.20312 z"
         style="fill:#003380"
         id="path298" />
      <path
         d="m 281.83484,266.89731 q 0,3.04687 -6.70313,19.3125 -7.64062,18.70312 -9.42187,25.5 -3.04688,11.71875 -8.20313,16.17187 -4.96875,4.3125 -14.90625,4.3125 l -0.9375,-9.04687 q 5.8125,0 9.5625,-3.32813 3.75,-3.28125 3.75,-8.8125 0,-5.57812 -8.4375,-24.375 -8.4375,-18.84375 -8.4375,-19.73437 h 14.48438 q 0,1.64062 4.26562,15.89062 4.26563,14.25 4.26563,17.4375 h 0.65625 q 0,-2.71875 3.84375,-16.03125 3.89062,-13.35937 3.89062,-17.29687 z"
         style="fill:#003380"
         id="path300" />
      <path
         d="m 360.63171,311.42856 h -13.64062 q 0,-7.96875 -0.98438,-26.85938 -0.98437,-18.9375 -1.03125,-23.625 h -0.70312 q -0.46875,2.8125 -2.48438,10.40625 -2.01562,7.59375 -7.59375,22.40625 -5.53125,14.76563 -5.53125,17.67188 h -10.35937 q 0,-3 -5.34375,-17.85938 -5.29688,-14.85937 -6.9375,-20.8125 -1.64063,-5.95312 -2.625,-11.8125 h -0.70313 q -0.0469,5.85938 -1.17187,25.125 -1.07813,19.26563 -1.07813,25.35938 h -12.375 q 0,-1.40625 3.375,-28.17188 3.42188,-26.76562 3.42188,-32.85937 h 18.14062 q 0,5.25 5.71875,23.15625 5.76563,17.90625 5.76563,22.92187 h 0.70312 q 0,-5.0625 6.51563,-22.96875 6.5625,-17.90625 6.5625,-23.10937 h 18 q 0,9.70312 2.15625,34.64062 2.20312,24.89063 2.20312,26.39063 z"
         style="fill:#37c8ab"
         id="path302" />
      <path
         d="m 409.70984,311.38168 -11.0625,0.375 q -0.75,-1.96875 -0.75,-3.5625 h -0.60938 q -5.15625,4.40625 -13.92187,4.40625 -5.85938,0 -9.75,-3.23437 -3.84375,-3.28125 -3.84375,-8.67188 0,-7.125 6,-11.67187 6.04687,-4.54688 21.14062,-4.82813 0.0937,-0.84375 0.0937,-1.59375 0,-5.0625 -2.4375,-6.65625 -2.4375,-1.64062 -8.95312,-1.64062 -7.07813,0 -13.82813,1.875 l 1.03125,-8.625 q 6.375,-2.20313 18,-2.20313 8.48438,0 13.07813,3.5625 4.64062,3.5625 4.64062,12.46875 0,1.96875 -0.1875,7.17188 -0.14062,5.20312 -0.14062,6.9375 0,9.70312 1.5,15.89062 z m -12.51563,-9.75 q -0.28125,-6.32812 -0.28125,-10.92187 -15.98437,0 -15.98437,8.10937 0,5.57813 7.03125,5.57813 5.53125,0 9.23437,-2.76563 z"
         style="fill:#37c8ab"
         id="path304" />
      <path
         d="m 449.64734,266.89731 -2.71875,10.96875 q -3.46875,-1.40625 -7.03125,-1.40625 -6.89063,0 -9.09375,6.1875 0,18.70312 0.28125,28.78125 h -12.46875 q 0.79687,-14.10938 0.79687,-23.0625 0,-11.15625 -2.34375,-21.14063 l 11.95313,-1.3125 q 0.79687,5.15625 0.79687,6.04688 h 0.75 q 4.3125,-6.60938 11.48438,-6.60938 3.375,0 7.59375,1.54688 z"
         style="fill:#37c8ab"
         id="path306" />
      <path
         d="m 498.72546,311.42856 h -14.34375 q 0,-1.73438 -7.125,-11.71875 -7.125,-10.03125 -9.09375,-10.03125 h -0.60937 q 0,9.60937 0.5625,21.75 h -12.42188 q 0.5625,-21.89063 0.5625,-34.82813 0,-17.90625 -1.45312,-31.07812 l 13.3125,-0.75 q -0.65625,17.8125 -0.65625,31.82812 0,1.78125 0.0469,6.9375 h 0.65625 q 1.3125,0 7.45313,-7.54687 6.14062,-7.59375 6.14062,-9.09375 h 13.96875 q 0,1.45312 -6.375,8.10937 -6.375,6.65625 -10.3125,9.1875 v 0.70313 q 4.35938,3.04687 12,13.875 7.6875,10.78125 7.6875,12.65625 z"
         style="fill:#37c8ab"
         id="path308" />
      <path
         d="m 547.61609,311.38168 -11.10938,0.375 q -0.32812,-1.64062 -0.32812,-3.42187 h -0.70313 q -5.15625,4.45312 -13.17187,4.45312 -9,0 -14.29688,-6.51562 -5.29687,-6.51563 -5.29687,-15.46875 0,-10.26563 5.76562,-17.85938 5.76563,-7.64062 16.03125,-7.64062 6.65625,0 9.98438,2.48437 h 0.65625 q 0,-11.0625 -1.07813,-22.26562 l 13.26563,-0.375 q -0.75,10.92187 -0.75,31.40625 0,20.76562 1.03125,34.82812 z m -11.76563,-10.64062 q 0,-14.95313 -0.70312,-24.75 -3.23438,-2.25 -7.73438,-2.25 -6.1875,0 -9.1875,4.59375 -3,4.59375 -3,11.25 0,5.90625 2.90625,10.21875 2.90625,4.26562 8.0625,4.26562 6.89063,0 9.65625,-3.32812 z"
         style="fill:#37c8ab"
         id="path310" />
      <path
         d="m 602.69421,288.13168 q 0,11.8125 -7.26562,18.46875 -7.26563,6.65625 -17.10938,6.65625 -9.375,0 -16.07812,-6.04687 -6.70313,-6.09375 -6.70313,-17.10938 0,-11.85937 7.3125,-18.5625 7.3125,-6.70312 17.15625,-6.70312 9.32813,0 15.98438,6.14062 6.70312,6.09375 6.70312,17.15625 z m -12.23437,1.40625 q 0,-6.79687 -3.1875,-11.39062 -3.1875,-4.64063 -8.29688,-4.64063 -4.96875,0 -8.10937,4.3125 -3.09375,4.3125 -3.09375,10.78125 0,6.79688 3.1875,11.4375 3.1875,4.59375 8.29687,4.59375 4.96875,0 8.0625,-4.3125 3.14063,-4.3125 3.14063,-10.78125 z"
         style="fill:#37c8ab"
         id="path312" />
      <path
         d="m 680.03796,266.89731 q 0,2.67187 -7.82812,21.9375 -7.78125,19.26562 -7.78125,22.59375 h -10.92188 q 0,-2.15625 -3.84375,-13.26563 -4.78125,-13.875 -6.09375,-18.89062 h -0.75 q -1.21875,4.82812 -5.8125,18.65625 -3.70312,10.96875 -3.70312,13.5 h -10.96875 q 0,-2.85938 -7.45313,-22.78125 -7.40625,-19.96875 -7.40625,-21.75 h 13.5 q 0,1.92187 4.07813,16.125 4.125,14.15625 4.125,16.82812 h 0.70312 q 0,-3.23437 4.6875,-16.78125 4.6875,-13.59375 4.6875,-16.17187 h 11.01563 q 0,1.78125 4.54687,16.17187 4.59375,14.39063 4.59375,16.78125 h 0.65625 q 0,-2.625 4.125,-15.9375 4.17188,-13.35937 4.17188,-17.01562 z"
         style="fill:#37c8ab"
         id="path314" />
      <path
         d="m 729.11609,311.42856 h -12.46875 q 1.03125,-11.85938 1.03125,-24 0,-7.35938 -2.20313,-9.98438 -2.15625,-2.625 -6.60937,-2.625 -5.34375,0 -10.125,3.65625 0.23437,18.28125 0.23437,32.95313 h -12.60937 q 0.84375,-14.67188 0.84375,-23.0625 0,-11.20313 -2.29688,-21.14063 l 12,-1.3125 0.79688,4.96875 h 0.75 q 6.42187,-5.53125 14.76562,-5.53125 7.21875,0 11.53125,3.42188 4.35938,3.375 4.35938,12.51562 0,1.35938 -0.14063,3.65625 -0.0937,2.25 -0.0937,4.64063 0,6.32812 0.23438,21.84375 z"
         style="fill:#37c8ab"
         id="path316" />
    </g>
  </g>
</svg>
